<svg width="36" height="36" viewBox="0 0 36 36" fill="none" xmlns="http://www.w3.org/2000/svg">
<g clip-path="url(#clip0_788_1750)">
<path d="M22.1036 31.4593V32.5111C22.1036 33.3481 21.4888 34.0444 20.6888 34.163L20.4295 35.1185C20.2888 35.637 19.8221 36 19.2814 36H16.711C16.1703 36 15.7036 35.637 15.5629 35.1185L15.311 34.163C14.5036 34.037 13.8888 33.3481 13.8888 32.5037V31.4519C13.8888 30.8889 14.3406 30.437 14.9036 30.437H21.0888C21.6518 30.4444 22.1036 30.8963 22.1036 31.4593ZM26.8666 17.2815C26.8666 19.6741 25.9184 21.8444 24.3777 23.437C23.2073 24.6519 22.4518 26.2 22.1999 27.8519C22.0888 28.563 21.474 29.0889 20.7481 29.0889H15.2443C14.5258 29.0889 13.9036 28.5704 13.7999 27.8593C13.5406 26.2074 12.7777 24.637 11.6073 23.4296C10.0962 21.8593 9.15546 19.7259 9.13324 17.3778C9.08139 12.4444 13.0073 8.45185 17.9406 8.41481C22.8666 8.37778 26.8666 12.363 26.8666 17.2815ZM18.9999 11.9111C18.9999 11.363 18.5555 10.9111 17.9999 10.9111C14.474 10.9111 11.5999 13.7778 11.5999 17.3111C11.5999 17.8593 12.0443 18.3111 12.5999 18.3111C13.1481 18.3111 13.5999 17.8667 13.5999 17.3111C13.5999 14.8815 15.5777 12.9111 17.9999 12.9111C18.5555 12.9111 18.9999 12.4667 18.9999 11.9111ZM17.9999 5.5037C18.5481 5.5037 18.9999 5.05926 18.9999 4.5037V1C18.9999 0.451852 18.5555 0 17.9999 0C17.4443 0 16.9999 0.444444 16.9999 1V4.5037C16.9999 5.05926 17.4518 5.5037 17.9999 5.5037ZM6.22953 17.2741C6.22953 16.7259 5.78509 16.2741 5.22953 16.2741H1.72583C1.17768 16.2741 0.72583 16.7185 0.72583 17.2741C0.72583 17.8222 1.17027 18.2741 1.72583 18.2741H5.22953C5.78509 18.2741 6.22953 17.8296 6.22953 17.2741ZM34.274 16.2741H30.7703C30.2221 16.2741 29.7703 16.7185 29.7703 17.2741C29.7703 17.8222 30.2147 18.2741 30.7703 18.2741H34.274C34.8221 18.2741 35.274 17.8296 35.274 17.2741C35.274 16.7259 34.8295 16.2741 34.274 16.2741ZM8.26657 25.6L5.78509 28.0815C5.3925 28.4741 5.3925 29.1037 5.78509 29.4963C5.97768 29.6889 6.23694 29.7852 6.48879 29.7852C6.74064 29.7852 6.9999 29.6889 7.1925 29.4963L9.67398 27.0148C10.0666 26.6222 10.0666 25.9926 9.67398 25.6C9.28879 25.2074 8.65176 25.2074 8.26657 25.6ZM27.0295 9.24444C27.2814 9.24444 27.5406 9.14815 27.7332 8.95556L30.2147 6.47407C30.6073 6.08148 30.6073 5.45185 30.2147 5.05926C29.8221 4.66667 29.1925 4.66667 28.7999 5.05926L26.3184 7.54074C25.9258 7.93333 25.9258 8.56296 26.3184 8.95556C26.5184 9.14815 26.7703 9.24444 27.0295 9.24444ZM8.26657 8.94815C8.45916 9.14074 8.71842 9.23704 8.97027 9.23704C9.22213 9.23704 9.48139 9.14074 9.67398 8.94815C10.0666 8.55556 10.0666 7.92593 9.67398 7.53333L7.1925 5.05185C6.7999 4.65926 6.17027 4.65926 5.77768 5.05185C5.38509 5.44444 5.38509 6.07407 5.77768 6.46667L8.26657 8.94815ZM27.7332 25.6C27.3406 25.2074 26.711 25.2074 26.3184 25.6C25.9258 25.9926 25.9258 26.6222 26.3184 27.0148L28.7999 29.4963C28.9925 29.6889 29.2518 29.7852 29.5036 29.7852C29.7555 29.7852 30.0147 29.6889 30.2073 29.4963C30.5999 29.1037 30.5999 28.4741 30.2073 28.0815L27.7332 25.6Z" fill="#6CF2B3"/>
<path d="M22.1036 31.4593V32.5111C22.1036 33.3481 21.4888 34.0444 20.6888 34.163L20.4295 35.1185C20.2888 35.637 19.8221 36 19.2814 36H16.711C16.1703 36 15.7036 35.637 15.5629 35.1185L15.311 34.163C14.5036 34.037 13.8888 33.3481 13.8888 32.5037V31.4519C13.8888 30.8889 14.3406 30.437 14.9036 30.437H21.0888C21.6518 30.4444 22.1036 30.8963 22.1036 31.4593ZM26.8666 17.2815C26.8666 19.6741 25.9184 21.8444 24.3777 23.437C23.2073 24.6519 22.4518 26.2 22.1999 27.8519C22.0888 28.563 21.474 29.0889 20.7481 29.0889H15.2443C14.5258 29.0889 13.9036 28.5704 13.7999 27.8593C13.5406 26.2074 12.7777 24.637 11.6073 23.4296C10.0962 21.8593 9.15546 19.7259 9.13324 17.3778C9.08139 12.4444 13.0073 8.45185 17.9406 8.41481C22.8666 8.37778 26.8666 12.363 26.8666 17.2815ZM18.9999 11.9111C18.9999 11.363 18.5555 10.9111 17.9999 10.9111C14.474 10.9111 11.5999 13.7778 11.5999 17.3111C11.5999 17.8593 12.0443 18.3111 12.5999 18.3111C13.1481 18.3111 13.5999 17.8667 13.5999 17.3111C13.5999 14.8815 15.5777 12.9111 17.9999 12.9111C18.5555 12.9111 18.9999 12.4667 18.9999 11.9111ZM17.9999 5.5037C18.5481 5.5037 18.9999 5.05926 18.9999 4.5037V1C18.9999 0.451852 18.5555 0 17.9999 0C17.4443 0 16.9999 0.444444 16.9999 1V4.5037C16.9999 5.05926 17.4518 5.5037 17.9999 5.5037ZM6.22953 17.2741C6.22953 16.7259 5.78509 16.2741 5.22953 16.2741H1.72583C1.17768 16.2741 0.72583 16.7185 0.72583 17.2741C0.72583 17.8222 1.17027 18.2741 1.72583 18.2741H5.22953C5.78509 18.2741 6.22953 17.8296 6.22953 17.2741ZM34.274 16.2741H30.7703C30.2221 16.2741 29.7703 16.7185 29.7703 17.2741C29.7703 17.8222 30.2147 18.2741 30.7703 18.2741H34.274C34.8221 18.2741 35.274 17.8296 35.274 17.2741C35.274 16.7259 34.8295 16.2741 34.274 16.2741ZM8.26657 25.6L5.78509 28.0815C5.3925 28.4741 5.3925 29.1037 5.78509 29.4963C5.97768 29.6889 6.23694 29.7852 6.48879 29.7852C6.74064 29.7852 6.9999 29.6889 7.1925 29.4963L9.67398 27.0148C10.0666 26.6222 10.0666 25.9926 9.67398 25.6C9.28879 25.2074 8.65176 25.2074 8.26657 25.6ZM27.0295 9.24444C27.2814 9.24444 27.5406 9.14815 27.7332 8.95556L30.2147 6.47407C30.6073 6.08148 30.6073 5.45185 30.2147 5.05926C29.8221 4.66667 29.1925 4.66667 28.7999 5.05926L26.3184 7.54074C25.9258 7.93333 25.9258 8.56296 26.3184 8.95556C26.5184 9.14815 26.7703 9.24444 27.0295 9.24444ZM8.26657 8.94815C8.45916 9.14074 8.71842 9.23704 8.97027 9.23704C9.22213 9.23704 9.48139 9.14074 9.67398 8.94815C10.0666 8.55556 10.0666 7.92593 9.67398 7.53333L7.1925 5.05185C6.7999 4.65926 6.17027 4.65926 5.77768 5.05185C5.38509 5.44444 5.38509 6.07407 5.77768 6.46667L8.26657 8.94815ZM27.7332 25.6C27.3406 25.2074 26.711 25.2074 26.3184 25.6C25.9258 25.9926 25.9258 26.6222 26.3184 27.0148L28.7999 29.4963C28.9925 29.6889 29.2518 29.7852 29.5036 29.7852C29.7555 29.7852 30.0147 29.6889 30.2073 29.4963C30.5999 29.1037 30.5999 28.4741 30.2073 28.0815L27.7332 25.6Z" fill="#006654"/>
</g>
<defs>
<clipPath id="clip0_788_1750">
<rect width="36" height="36" fill="white"/>
</clipPath>
</defs>
</svg>
