<svg width="40" height="40" viewBox="0 0 40 40" fill="none" xmlns="http://www.w3.org/2000/svg">
<g clip-path="url(#clip0_752_1951)">
<path d="M32.383 16.4112C32.383 9.45468 26.6465 3.83789 19.6459 4.03327C12.9961 4.21884 7.6491 9.69844 7.61733 16.3508C7.60117 19.7352 8.94298 22.8059 11.1293 25.0501C13.1392 27.1133 14.2844 29.8664 14.2844 32.7468V33.6947H25.7158V32.7468C25.7158 29.8802 26.8362 27.1255 28.843 25.0786C31.0326 22.8453 32.383 19.7861 32.383 16.4112Z" fill="url(#paint0_radial_752_1951)"/>
<path d="M20.0001 27.9953C26.3977 27.9953 31.5839 22.8091 31.5839 16.4115C31.5839 10.0139 26.3977 4.82764 20.0001 4.82764C13.6025 4.82764 8.41626 10.0139 8.41626 16.4115C8.41626 22.8091 13.6025 27.9953 20.0001 27.9953Z" fill="url(#paint1_linear_752_1951)"/>
<path d="M19.9999 13.8633C24.1496 13.8633 27.5137 11.9079 27.5137 9.49587C27.5137 7.08379 24.1496 5.12842 19.9999 5.12842C15.8501 5.12842 12.4861 7.08379 12.4861 9.49587C12.4861 11.9079 15.8501 13.8633 19.9999 13.8633Z" fill="url(#paint2_linear_752_1951)"/>
<path d="M25.5393 5.33447C26.3744 7.0013 26.8452 8.88239 26.8452 10.8737C26.8452 17.7126 21.3012 23.2566 14.4623 23.2566C12.471 23.2566 10.5899 22.7858 8.9231 21.9506C10.9562 26.0084 15.1525 28.7943 20 28.7943C26.8389 28.7943 32.3829 23.2503 32.3829 16.4114C32.3829 11.5638 29.597 7.36757 25.5393 5.33447Z" fill="url(#paint3_linear_752_1951)"/>
<path d="M19.9999 30.5955C24.1496 30.5955 27.5137 27.2314 27.5137 23.0817C27.5137 18.9319 24.1496 15.5679 19.9999 15.5679C15.8501 15.5679 12.4861 18.9319 12.4861 23.0817C12.4861 27.2314 15.8501 30.5955 19.9999 30.5955Z" fill="url(#paint4_radial_752_1951)"/>
<path d="M24.5081 38.9776C21.6574 40.3411 18.3426 40.3411 15.4918 38.9776C14.7512 38.6234 14.2798 37.8753 14.2798 37.0544V30.8745H25.72V37.0544C25.7201 37.8753 25.2486 38.6234 24.5081 38.9776Z" fill="url(#paint5_linear_752_1951)"/>
<path d="M14.2798 32.2054L15.4141 33.3397H25.7201V32.1958H14.2798V32.2054Z" fill="url(#paint6_linear_752_1951)"/>
<path d="M14.2798 35.0243L15.4141 36.1586H25.7201V35.0146H14.2798V35.0243Z" fill="url(#paint7_linear_752_1951)"/>
<path d="M14.3821 37.7021C14.4013 37.7622 14.4231 37.8213 14.4474 37.8792L15.4143 38.8461H24.7416C25.1611 38.5763 25.4688 38.17 25.6182 37.7021H14.3821Z" fill="url(#paint8_linear_752_1951)"/>
<path d="M23.2225 23.0815H22.9902C22.0695 23.0815 21.3205 23.8306 21.3205 24.7513V25.2891H20H18.6794V24.7513C18.6794 23.8306 17.9304 23.0815 17.0097 23.0815H16.7774C15.8567 23.0815 15.1077 23.8306 15.1077 24.7513C15.1077 25.672 15.8567 26.421 16.7774 26.421H17.5475V30.7407H18.6794V26.421H20H21.3205V30.7407H22.4524V26.421H23.2225C24.1432 26.421 24.8922 25.672 24.8922 24.7513C24.8922 23.8306 24.1432 23.0815 23.2225 23.0815ZM17.5476 25.2891H16.7775C16.4809 25.2891 16.2397 25.0478 16.2397 24.7513C16.2397 24.4547 16.4809 24.2135 16.7775 24.2135H17.0098C17.3063 24.2135 17.5476 24.4547 17.5476 24.7513V25.2891ZM23.2225 25.2891H22.4524V24.7513C22.4524 24.4547 22.6936 24.2135 22.9902 24.2135H23.2225C23.519 24.2135 23.7603 24.4547 23.7603 24.7513C23.7604 25.0478 23.5191 25.2891 23.2225 25.2891Z" fill="url(#paint9_linear_752_1951)"/>
<path d="M23.2225 23.0815H22.9902C22.0695 23.0815 21.3205 23.8306 21.3205 24.7513V25.2891H20H18.6794V24.7513C18.6794 23.8306 17.9304 23.0815 17.0097 23.0815H16.7774C15.8567 23.0815 15.1077 23.8306 15.1077 24.7513C15.1077 25.672 15.8567 26.421 16.7774 26.421H17.5475V30.7407H18.6794V26.421H20H21.3205V30.7407H22.4524V26.421H23.2225C24.1432 26.421 24.8922 25.672 24.8922 24.7513C24.8922 23.8306 24.1432 23.0815 23.2225 23.0815ZM17.5476 25.2891H16.7775C16.4809 25.2891 16.2397 25.0478 16.2397 24.7513C16.2397 24.4547 16.4809 24.2135 16.7775 24.2135H17.0098C17.3063 24.2135 17.5476 24.4547 17.5476 24.7513V25.2891ZM23.2225 25.2891H22.4524V24.7513C22.4524 24.4547 22.6936 24.2135 22.9902 24.2135H23.2225C23.519 24.2135 23.7603 24.4547 23.7603 24.7513C23.7604 25.0478 23.5191 25.2891 23.2225 25.2891Z" fill="url(#paint10_linear_752_1951)"/>
<path d="M25.408 32.25H14.5923C14.0505 32.25 13.6113 31.8108 13.6113 31.269C13.6113 30.7272 14.0505 30.2881 14.5923 30.2881H25.408C25.9498 30.2881 26.3889 30.7273 26.3889 31.269C26.389 31.8108 25.9498 32.25 25.408 32.25Z" fill="url(#paint11_linear_752_1951)"/>
<path d="M25.408 35.0708H14.5923C14.0505 35.0708 13.6113 34.6316 13.6113 34.0898C13.6113 33.548 14.0505 33.1089 14.5923 33.1089H25.408C25.9498 33.1089 26.3889 33.5481 26.3889 34.0898C26.389 34.6316 25.9498 35.0708 25.408 35.0708Z" fill="url(#paint12_linear_752_1951)"/>
<path d="M25.408 37.8921H14.5923C14.0505 37.8921 13.6113 37.4528 13.6113 36.9111C13.6113 36.3693 14.0505 35.9302 14.5923 35.9302H25.408C25.9498 35.9302 26.3889 36.3694 26.3889 36.9111C26.389 37.4529 25.9498 37.8921 25.408 37.8921Z" fill="url(#paint13_linear_752_1951)"/>
<path d="M23.7245 39.3132C22.6839 38.9601 21.3954 38.751 19.9999 38.751C18.6045 38.751 17.3159 38.96 16.2754 39.3132C18.6734 40.2284 21.3265 40.2284 23.7245 39.3132Z" fill="url(#paint14_linear_752_1951)"/>
<path d="M5.89064 17.3281H4.24875C3.81322 17.3281 3.46021 16.9751 3.46021 16.5395C3.46021 16.104 3.81322 15.751 4.24875 15.751H5.89064C6.32617 15.751 6.67919 16.1041 6.67919 16.5395C6.67919 16.9751 6.32617 17.3281 5.89064 17.3281Z" fill="url(#paint15_linear_752_1951)"/>
<path d="M35.7512 17.3281H34.1094C33.6738 17.3281 33.3208 16.9751 33.3208 16.5395C33.3208 16.104 33.6738 15.751 34.1094 15.751H35.7512C36.1868 15.751 36.5398 16.1041 36.5398 16.5395C36.5399 16.9751 36.1868 17.3281 35.7512 17.3281Z" fill="url(#paint16_linear_752_1951)"/>
<path d="M20.7885 2.43043V0.788549C20.7885 0.353098 20.4355 0 20 0C19.5644 0 19.2114 0.353098 19.2114 0.788549V2.43043C19.2114 2.86596 19.5644 3.21898 20 3.21898C20.4355 3.21906 20.7885 2.86596 20.7885 2.43043Z" fill="url(#paint17_linear_752_1951)"/>
<path d="M9.46569 7.12046L8.30467 5.95944C7.99675 5.65152 7.99675 5.15222 8.30467 4.84422C8.61259 4.5363 9.11197 4.5363 9.41989 4.84422L10.5809 6.00524C10.8888 6.31316 10.8888 6.81246 10.5809 7.12046C10.2729 7.42846 9.77361 7.42846 9.46569 7.12046Z" fill="url(#paint18_linear_752_1951)"/>
<path d="M30.5344 7.12046L31.6954 5.95944C32.0034 5.65152 32.0034 5.15222 31.6954 4.84422C31.3875 4.5363 30.8882 4.5363 30.5802 4.84422L29.4192 6.00524C29.1113 6.31316 29.1113 6.81246 29.4192 7.12046C29.7272 7.42846 30.2265 7.42846 30.5344 7.12046Z" fill="url(#paint19_linear_752_1951)"/>
</g>
<defs>
<radialGradient id="paint0_radial_752_1951" cx="0" cy="0" r="1" gradientUnits="userSpaceOnUse" gradientTransform="translate(15.8634 11.7435) scale(19.5933)">
<stop stop-color="#FFDA45"/>
<stop offset="0.3043" stop-color="#FFCE3E"/>
<stop offset="0.8558" stop-color="#FFAE2B"/>
<stop offset="1" stop-color="#FFA425"/>
</radialGradient>
<linearGradient id="paint1_linear_752_1951" x1="21.3828" y1="17.7941" x2="8.82206" y2="5.23344" gradientUnits="userSpaceOnUse">
<stop stop-color="#FFDA45" stop-opacity="0"/>
<stop offset="1" stop-color="#FCEE21"/>
</linearGradient>
<linearGradient id="paint2_linear_752_1951" x1="20.8188" y1="12.9647" x2="18.5672" y2="3.42693" gradientUnits="userSpaceOnUse">
<stop stop-color="#FFDA45" stop-opacity="0"/>
<stop offset="1" stop-color="white"/>
</linearGradient>
<linearGradient id="paint3_linear_752_1951" x1="20.4301" y1="21.1571" x2="37.451" y2="-10.4993" gradientUnits="userSpaceOnUse">
<stop stop-color="#FFDA45" stop-opacity="0"/>
<stop offset="1" stop-color="#B53759"/>
</linearGradient>
<radialGradient id="paint4_radial_752_1951" cx="0" cy="0" r="1" gradientUnits="userSpaceOnUse" gradientTransform="translate(19.9999 23.0817) scale(7.5138)">
<stop stop-color="#FCEE21" stop-opacity="0.6"/>
<stop offset="0.3263" stop-color="#FDEA28" stop-opacity="0.404"/>
<stop offset="0.7865" stop-color="#FEE03A" stop-opacity="0.128"/>
<stop offset="1" stop-color="#FFDA45" stop-opacity="0"/>
</radialGradient>
<linearGradient id="paint5_linear_752_1951" x1="14.2798" y1="35.4374" x2="25.7201" y2="35.4374" gradientUnits="userSpaceOnUse">
<stop stop-color="#7E8595"/>
<stop offset="1" stop-color="#555A66"/>
</linearGradient>
<linearGradient id="paint6_linear_752_1951" x1="19.9908" y1="33.2644" x2="20.0159" y2="31.9062" gradientUnits="userSpaceOnUse">
<stop stop-color="#555A66" stop-opacity="0"/>
<stop offset="1" stop-color="#555A66"/>
</linearGradient>
<linearGradient id="paint7_linear_752_1951" x1="19.9908" y1="36.0834" x2="20.0159" y2="34.7251" gradientUnits="userSpaceOnUse">
<stop stop-color="#555A66" stop-opacity="0"/>
<stop offset="1" stop-color="#555A66"/>
</linearGradient>
<linearGradient id="paint8_linear_752_1951" x1="19.9804" y1="38.7708" x2="20.0055" y2="37.4145" gradientUnits="userSpaceOnUse">
<stop stop-color="#555A66" stop-opacity="0"/>
<stop offset="1" stop-color="#555A66"/>
</linearGradient>
<linearGradient id="paint9_linear_752_1951" x1="20" y1="25.8609" x2="20" y2="21.8839" gradientUnits="userSpaceOnUse">
<stop stop-color="#FFDA45" stop-opacity="0"/>
<stop offset="1" stop-color="#FCEE21"/>
</linearGradient>
<linearGradient id="paint10_linear_752_1951" x1="20" y1="26.6659" x2="20" y2="31.3957" gradientUnits="userSpaceOnUse">
<stop stop-color="#FFDA45" stop-opacity="0"/>
<stop offset="1" stop-color="#B53759"/>
</linearGradient>
<linearGradient id="paint11_linear_752_1951" x1="19.9705" y1="30.5721" x2="20.0435" y2="32.2875" gradientUnits="userSpaceOnUse">
<stop stop-color="#F9F7FC"/>
<stop offset="1" stop-color="#F0DDFC"/>
</linearGradient>
<linearGradient id="paint12_linear_752_1951" x1="19.9705" y1="33.3929" x2="20.0435" y2="35.1083" gradientUnits="userSpaceOnUse">
<stop stop-color="#7E8595"/>
<stop offset="1" stop-color="#555A66"/>
</linearGradient>
<linearGradient id="paint13_linear_752_1951" x1="19.9705" y1="36.2143" x2="20.0435" y2="37.9297" gradientUnits="userSpaceOnUse">
<stop stop-color="#7E8595"/>
<stop offset="1" stop-color="#555A66"/>
</linearGradient>
<linearGradient id="paint14_linear_752_1951" x1="19.9468" y1="38.9276" x2="20.2486" y2="41.1158" gradientUnits="userSpaceOnUse">
<stop stop-color="#F9F7FC"/>
<stop offset="1" stop-color="#F0DDFC"/>
</linearGradient>
<linearGradient id="paint15_linear_752_1951" x1="5.0697" y1="16.3558" x2="5.0697" y2="17.9784" gradientUnits="userSpaceOnUse">
<stop stop-color="#92F37F"/>
<stop offset="1" stop-color="#4AB272"/>
</linearGradient>
<linearGradient id="paint16_linear_752_1951" x1="34.9303" y1="16.3558" x2="34.9303" y2="17.9784" gradientUnits="userSpaceOnUse">
<stop stop-color="#92F37F"/>
<stop offset="1" stop-color="#4AB272"/>
</linearGradient>
<linearGradient id="paint17_linear_752_1951" x1="19.8164" y1="1.60949" x2="21.439" y2="1.60949" gradientUnits="userSpaceOnUse">
<stop stop-color="#92F37F"/>
<stop offset="1" stop-color="#4AB272"/>
</linearGradient>
<linearGradient id="paint18_linear_752_1951" x1="9.57345" y1="5.85032" x2="8.42628" y2="6.99749" gradientUnits="userSpaceOnUse">
<stop stop-color="#92F37F"/>
<stop offset="1" stop-color="#4AB272"/>
</linearGradient>
<linearGradient id="paint19_linear_752_1951" x1="30.4266" y1="5.85032" x2="31.5738" y2="6.99749" gradientUnits="userSpaceOnUse">
<stop stop-color="#92F37F"/>
<stop offset="1" stop-color="#4AB272"/>
</linearGradient>
<clipPath id="clip0_752_1951">
<rect width="40" height="40" fill="white"/>
</clipPath>
</defs>
</svg>
