<svg width="18" height="18" viewBox="0 0 18 18" xmlns="http://www.w3.org/2000/svg">
<path d="M15.4218 9.32806C15.203 9.10924 14.9375 9.00002 14.6248 9.00002H5.99994V5.25006C5.99994 4.4218 6.29296 3.71486 6.87894 3.12889C7.46495 2.54304 8.17192 2.25006 9.00011 2.25006C9.82821 2.25006 10.5353 2.543 11.1211 3.12889C11.7071 3.71486 12.0001 4.42184 12.0001 5.25006C12.0001 5.45312 12.0743 5.62888 12.2226 5.7773C12.3712 5.92576 12.5471 6.00001 12.7499 6.00001H13.5003C13.7032 6.00001 13.879 5.92576 14.0276 5.7773C14.1756 5.62888 14.2501 5.45312 14.2501 5.25006C14.2501 3.80459 13.7364 2.56849 12.7092 1.54107C11.6818 0.513608 10.4454 0 9.00011 0C7.55472 0 6.31841 0.513608 5.29095 1.54103C4.26365 2.56833 3.75 3.80455 3.75 5.25002V8.99998H3.37505C3.06265 8.99998 2.79696 9.10945 2.57818 9.32802C2.35941 9.54659 2.25006 9.81236 2.25006 10.1249V16.875C2.25006 17.1876 2.35945 17.4533 2.57818 17.672C2.79696 17.8905 3.06265 18 3.37505 18H14.6248C14.9375 18 15.2033 17.8905 15.4218 17.672C15.6404 17.4533 15.7499 17.1876 15.7499 16.875V10.1249C15.7501 9.8124 15.6407 9.54692 15.4218 9.32806Z"/>
</svg>
