
<svg width="20" height="20" viewBox="0 0 20 20" xmlns="http://www.w3.org/2000/svg">
  <path fill-rule="evenodd" clip-rule="evenodd" d="M16.3166 13.9249L16.5166 14.8749C16.7061 15.6962 16.519 16.5592 16.0063 17.2283C15.4936 17.8974 14.7089 18.3026 13.8666 18.3332H6.13325C5.29089 18.3026 4.50622 17.8974 3.99354 17.2283C3.48085 16.5592 3.29372 15.6962 3.48325 14.8749L3.68325 13.9249C3.91328 12.6388 5.01877 11.6938 6.32492 11.6665H13.6749C14.9811 11.6938 16.0866 12.6388 16.3166 13.9249ZM13.8666 17.0749C14.2897 17.07 14.688 16.8739 14.9499 16.5415V16.5499C15.2713 16.1467 15.3965 15.6213 15.2916 15.1165L15.0916 14.1665C14.9806 13.4625 14.3871 12.9353 13.6749 12.9082H6.32492C5.61272 12.9353 5.01922 13.4625 4.90825 14.1665L4.70825 15.1165C4.60588 15.6187 4.73097 16.1404 5.04992 16.5415C5.31186 16.8739 5.71009 17.07 6.13325 17.0749H13.8666Z" />
  <path fill-rule="evenodd" clip-rule="evenodd" d="M10.4166 9.99985H9.58324C7.74229 9.99985 6.2499 8.50747 6.2499 6.66652V4.46652C6.24768 3.72323 6.54197 3.00975 7.06755 2.48416C7.59314 1.95858 8.30662 1.66429 9.0499 1.66652H10.9499C11.6932 1.66429 12.4067 1.95858 12.9323 2.48416C13.4578 3.00975 13.7521 3.72323 13.7499 4.46652V6.66652C13.7499 8.50747 12.2575 9.99985 10.4166 9.99985ZM9.0499 2.91652C8.19386 2.91652 7.4999 3.61048 7.4999 4.46652V6.66652C7.4999 7.81711 8.43264 8.74985 9.58324 8.74985H10.4166C11.5672 8.74985 12.4999 7.81711 12.4999 6.66652V4.46652C12.4999 4.05543 12.3366 3.66118 12.0459 3.3705C11.7552 3.07982 11.361 2.91652 10.9499 2.91652H9.0499Z" />
</svg>