<svg width="24" height="24" viewBox="0 0 24 24" xmlns="http://www.w3.org/2000/svg">
  <path d="M7.89844 17.3125V18.875C7.89844 20.5982 9.30026 22 11.0234 22H18.875C20.5982 22 22 20.5982 22 18.875V5.125C22 3.40182 20.5982 2 18.875 2H11.0234C9.30026 2 7.89844 3.40182 7.89844 5.125V6.6875C7.89844 7.11902 8.24817 7.46875 8.67969 7.46875C9.11121 7.46875 9.46094 7.11902 9.46094 6.6875V5.125C9.46094 4.26349 10.1619 3.5625 11.0234 3.5625H18.875C19.7365 3.5625 20.4375 4.26349 20.4375 5.125V18.875C20.4375 19.7365 19.7365 20.4375 18.875 20.4375H11.0234C10.1619 20.4375 9.46094 19.7365 9.46094 18.875V17.3125C9.46094 16.881 9.11121 16.5312 8.67969 16.5312C8.24817 16.5312 7.89844 16.881 7.89844 17.3125ZM2.57205 10.658L4.32147 8.90857C4.62665 8.60339 5.12134 8.60339 5.42636 8.90857C5.73154 9.21359 5.73154 9.70828 5.42636 10.0133L4.18201 11.2578H13.5625C13.994 11.2578 14.3438 11.6075 14.3438 12.0391C14.3438 12.4706 13.994 12.8203 13.5625 12.8203H4.18201L5.42636 14.0648C5.73154 14.3698 5.73154 14.8645 5.42636 15.1696C5.27377 15.3221 5.07388 15.3984 4.87399 15.3984C4.67395 15.3984 4.47406 15.3221 4.32147 15.1696L2.57205 13.4201C1.81049 12.6586 1.81049 11.4196 2.57205 10.658Z" />
  <path d="M7.89844 17.3125V18.875C7.89844 20.5982 9.30026 22 11.0234 22H18.875C20.5982 22 22 20.5982 22 18.875V5.125C22 3.40182 20.5982 2 18.875 2H11.0234C9.30026 2 7.89844 3.40182 7.89844 5.125V6.6875C7.89844 7.11902 8.24817 7.46875 8.67969 7.46875C9.11121 7.46875 9.46094 7.11902 9.46094 6.6875V5.125C9.46094 4.26349 10.1619 3.5625 11.0234 3.5625H18.875C19.7365 3.5625 20.4375 4.26349 20.4375 5.125V18.875C20.4375 19.7365 19.7365 20.4375 18.875 20.4375H11.0234C10.1619 20.4375 9.46094 19.7365 9.46094 18.875V17.3125C9.46094 16.881 9.11121 16.5312 8.67969 16.5312C8.24817 16.5312 7.89844 16.881 7.89844 17.3125ZM2.57205 10.658L4.32147 8.90857C4.62665 8.60339 5.12134 8.60339 5.42636 8.90857C5.73154 9.21359 5.73154 9.70828 5.42636 10.0133L4.18201 11.2578H13.5625C13.994 11.2578 14.3438 11.6075 14.3438 12.0391C14.3438 12.4706 13.994 12.8203 13.5625 12.8203H4.18201L5.42636 14.0648C5.73154 14.3698 5.73154 14.8645 5.42636 15.1696C5.27377 15.3221 5.07388 15.3984 4.87399 15.3984C4.67395 15.3984 4.47406 15.3221 4.32147 15.1696L2.57205 13.4201C1.81049 12.6586 1.81049 11.4196 2.57205 10.658Z" />
</svg>