<svg width="34" height="34" viewBox="0 0 34 34" xmlns="http://www.w3.org/2000/svg">
  <path d="M26.9875 13.5574C27.6888 11.7937 28.7937 10.0512 30.2706 8.37238C30.7381 7.84113 30.8019 7.07617 30.4194 6.48116C30.1218 6.01367 29.6331 5.75867 29.1019 5.75867C28.9531 5.75867 28.8044 5.76925 28.6556 5.82242C25.5319 6.73616 18.2325 9.97677 18.0306 20.3681C17.9563 24.3736 20.8887 27.8161 24.7031 28.2092C26.8175 28.4218 28.9212 27.7312 30.4831 26.3287C32.045 24.9155 32.9375 22.8967 32.9375 20.793C32.9375 17.2868 30.4512 14.2161 26.9875 13.5574Z" fill="#fff" />
  <path d="M7.74568 28.2092C9.84947 28.4218 11.9532 27.7312 13.515 26.3287C15.077 24.9155 15.9695 22.8967 15.9695 20.793C15.9695 17.2868 13.4832 14.2161 10.0194 13.5574C10.7207 11.7937 11.8257 10.0512 13.3026 8.37239C13.7701 7.84114 13.8338 7.07618 13.4513 6.48118C13.1538 6.01368 12.6651 5.75869 12.1338 5.75869C11.9851 5.75869 11.8363 5.76926 11.6876 5.82244C8.56383 6.73617 1.26445 9.97678 1.06258 20.3681V20.5168C1.06258 24.4587 3.96318 27.8161 7.74568 28.2092Z" fill="#fff" />
</svg>