<svg width="105" height="105" viewBox="0 0 105 105" fill="none" xmlns="http://www.w3.org/2000/svg">
<rect width="105" height="105" rx="15" fill="black"/>
<path d="M38.5 34.65C42.65 34.65 46.2 35.6 49.2 37.45V46.45C46.15 44.25 42.6 43.15 38.5 43.15C35.85 43.15 33.6 44.05 31.75 45.85C29.9 47.65 29 49.9 29 52.6C29 55.3 29.9 57.55 31.75 59.35C33.6 61.1 35.85 62 38.5 62C41.6 62 44 61 45.75 59V56.65H36.75V48.75H53.95V62.75C50.7 67.4 44.95 70.5 38.5 70.5C33.2 70.5 28.7 68.8 25 65.4C21.35 62 19.5 57.75 19.5 52.6C19.5 47.45 21.35 43.2 25 39.8C28.7 36.35 33.2 34.65 38.5 34.65ZM71.1953 44.05C75.1453 44.05 78.4953 45.35 81.2953 48C84.0953 50.6 85.4953 53.75 85.4953 57.4C85.4953 61.05 84.0953 64.2 81.2953 66.85C78.4953 69.45 75.1453 70.75 71.1953 70.75C67.2453 70.75 63.8453 69.45 61.0453 66.85C58.2953 64.2 56.8953 61.05 56.8953 57.4C56.8953 53.75 58.2953 50.6 61.0453 48C63.8453 45.35 67.2453 44.05 71.1953 44.05ZM71.1953 62.3C72.5953 62.3 73.7953 61.8 74.8453 60.85C75.8953 59.9 76.3953 58.75 76.3953 57.4C76.3953 56.05 75.8953 54.9 74.8453 53.95C73.7953 53 72.5953 52.5 71.1953 52.5C68.3453 52.5 65.9953 54.75 65.9953 57.4C65.9953 60.05 68.3453 62.3 71.1953 62.3Z" fill="white"/>
</svg>
