<svg width="134" height="34" viewBox="0 0 134 34" fill="none" xmlns="http://www.w3.org/2000/svg">
<path d="M43.2109 8.12428C46.9951 8.12428 50.0698 9.18142 52.4349 11.2957C54.8249 13.3854 56.0946 16.1757 56.244 19.6667V20.1461C56.244 24.178 54.9992 27.4477 52.5096 29.9553C50.02 32.4384 46.7586 33.6799 42.7254 33.6799C38.6674 33.6799 35.3811 32.5367 32.8666 30.2504C30.377 27.964 29.1322 24.9647 29.1322 21.2524C29.1322 17.3927 30.4392 14.2458 33.0533 11.812C35.6923 9.35351 39.0782 8.12428 43.2109 8.12428ZM49.7835 20.8099C49.7835 20.6132 49.771 20.4657 49.7461 20.3674C49.6465 18.4252 48.9744 16.8887 47.7295 15.7578C46.5096 14.6023 44.9163 14.0246 42.9495 14.0246C40.8084 14.0246 39.0408 14.6884 37.6466 16.0159C36.2774 17.3435 35.5927 19.0152 35.5927 21.0312C35.5927 23.0471 36.2276 24.682 37.4973 25.9358C38.7919 27.165 40.4848 27.7796 42.5761 27.7796C44.7171 27.7796 46.4474 27.1404 47.7669 25.862C49.1113 24.559 49.7835 22.875 49.7835 20.8099Z" fill="#332C29"/>
<path d="M17.2452 22.1387L16.9019 15.8441L31.8603 13.2683C32.3522 16.5976 32.3407 19.5235 31.8258 22.0461C31.2423 25.0864 29.7893 27.6441 27.4669 29.7194C25.1755 31.7893 22.3367 33.1158 18.9504 33.6989C14.3837 34.4853 10.4093 33.7314 7.02715 31.4372C3.67067 29.107 1.59968 25.7178 0.814175 21.2696C-0.0417505 16.4226 0.851209 12.1437 3.49305 8.43288C6.16055 4.68607 9.94853 2.39006 14.857 1.54485C18.8024 0.865467 22.306 1.40014 25.3677 3.14886C26.5081 3.80597 27.4101 4.47252 28.0736 5.14852C28.7318 5.79384 29.4988 6.78393 30.3747 8.11878L23.9878 11.9213C21.8751 8.83954 19.1567 7.58487 15.8326 8.15727C13.3473 8.58522 11.4365 9.90998 10.1002 12.1315C8.78957 14.3171 8.38886 16.8517 8.89809 19.7353C9.33688 22.2202 10.4583 24.1292 12.2622 25.4623C14.0661 26.7954 16.1642 27.256 18.5563 26.8441C20.2649 26.5499 21.6492 25.869 22.7091 24.8014C23.7946 23.6978 24.381 22.3956 24.4681 20.8949L17.2452 22.1387Z" fill="#332C29"/>
<path d="M113.674 8.56862H126.919L126.291 13.6281H118.937L118.449 17.5174H125.141L124.514 22.5425H117.821L116.706 31.5257H110.816L113.674 8.56862Z" fill="#332C29"/>
<path d="M126.635 15.8429H132.66L130.652 31.9605H124.627L126.635 15.8429ZM127.877 11.4439C127.244 10.7948 126.927 10.0256 126.927 9.1362C126.927 8.24678 127.244 7.48958 127.877 6.86459C128.534 6.21555 129.313 5.89104 130.214 5.89104C131.114 5.89104 131.881 6.21555 132.514 6.86459C133.171 7.48958 133.5 8.24678 133.5 9.1362C133.5 10.0256 133.171 10.7948 132.514 11.4439C131.881 12.0689 131.114 12.3814 130.214 12.3814C129.313 12.3814 128.534 12.0689 127.877 11.4439Z" fill="#332C29"/>
<path d="M101.837 11.8148C105.027 11.632 107.671 12.3747 109.77 14.0429C111.888 15.6891 113.097 17.9802 113.396 20.9159L113.42 21.3201C113.619 24.7191 112.732 27.5357 110.757 29.7699C108.781 31.9834 106.093 33.1875 102.693 33.3823C99.2722 33.5783 96.4451 32.7732 94.2121 30.9672C92.0001 29.16 90.8021 26.6916 90.6183 23.562C90.4271 20.3081 91.3732 17.5922 93.4564 15.4141C95.5594 13.2141 98.3529 12.0143 101.837 11.8148ZM108.006 22.1917C107.996 22.0259 107.978 21.9021 107.953 21.8204C107.772 20.1879 107.13 18.925 106.024 18.0318C104.939 17.1166 103.567 16.7065 101.909 16.8015C100.104 16.9049 98.6465 17.5498 97.5369 18.7363C96.4483 19.9216 95.9539 21.364 96.0537 23.0635C96.1536 24.763 96.7697 26.1106 97.9022 27.1063C99.0545 28.08 100.512 28.5164 102.275 28.4154C104.08 28.312 105.507 27.6896 106.556 26.5481C107.625 25.3848 108.108 23.9326 108.006 22.1917Z" fill="#332C29"/>
<path d="M90.2346 20.7871C89.5375 21.5443 88.5151 22.1524 87.1674 22.6113L92.6047 31.5257H85.7732L80.4753 22.4048L79.36 31.5257H73.4696L76.3276 8.56862H83.8911C86.9118 8.56862 89.0611 9.23405 90.3391 10.5649C91.5242 11.804 92.1167 13.5134 92.1167 15.6932C92.1167 17.7813 91.4893 19.4792 90.2346 20.7871ZM82.7409 13.1807H81.6255L80.8936 19.0662H81.9392C84.6811 19.0662 86.052 17.9993 86.052 15.8653C86.052 14.8557 85.8081 14.1559 85.3201 13.7658C84.8321 13.3757 83.9724 13.1807 82.7409 13.1807Z" fill="#332C29"/>
<path d="M56.2648 32.4735L54.3108 2.24589L64.3135 0.386462C68.3205 -0.35842 71.3872 -0.0265164 73.5135 1.38217C75.4977 2.69498 76.7656 4.79831 77.3173 7.69216C77.8802 10.6451 77.5446 13.1076 76.3105 15.0798C74.6209 17.7483 71.3688 19.53 66.5544 20.4249L63.1903 21.0503L63.8453 31.0643L56.2648 32.4735ZM64.4191 6.78769L62.3109 7.17959L62.8155 14.6991L65.1928 14.2572C67.1664 13.8903 68.4931 13.2156 69.1728 12.2332C69.6825 11.4963 69.8304 10.5668 69.6165 9.44473C69.4026 8.32262 68.9581 7.53385 68.283 7.07842C67.5312 6.54551 66.2432 6.4486 64.4191 6.78769Z" fill="#332C29"/>
</svg>
